<?xml version="1.0" encoding="UTF-8"?>
<!DOCTYPE svg PUBLIC "-//W3C//DTD SVG 1.1//EN" "http://www.w3.org/Graphics/SVG/1.1/DTD/svg11.dtd">
<svg xmlns="http://www.w3.org/2000/svg" xmlns:xlink="http://www.w3.org/1999/xlink" version="1.1" width="141px" height="141px" viewBox="-0.5 -0.5 141 141"><defs/><g><rect x="0" y="0" width="140" height="140" rx="30.8" ry="30.8" fill="rgb(255, 255, 255)" stroke="rgb(0, 0, 0)" pointer-events="all"/><path d="M 105 38 L 105 63 Q 105 73 105 83 L 105 108 Q 105 118 95 118 L 90 118 Q 85 118 85 108 L 85 33 Q 85 23 95 23 L 100 23 Q 105 23 105 28 L 105 33" fill="none" stroke="#ff6666" stroke-width="12" stroke-miterlimit="10" pointer-events="stroke"/><path d="M 35 31.25 L 35 26.25 Q 35 21.25 45 21.25 L 50 21.25 Q 55 21.25 55 31.25 L 55 63.75 Q 55 73.75 55 83.75 L 55 108.75 Q 55 118.75 45 118.75 L 40 118.75 Q 35 118.75 35 108.75 L 35 36.25" fill="none" stroke="#ff6666" stroke-width="12" stroke-miterlimit="10" pointer-events="stroke"/></g></svg>