<?xml version="1.0" encoding="UTF-8"?>
<!DOCTYPE svg PUBLIC "-//W3C//DTD SVG 1.1//EN" "http://www.w3.org/Graphics/SVG/1.1/DTD/svg11.dtd">
<svg xmlns="http://www.w3.org/2000/svg" xmlns:xlink="http://www.w3.org/1999/xlink" version="1.1" width="141px" height="141px" viewBox="-0.5 -0.5 141 141"><defs/><g><rect x="0" y="0" width="140" height="140" rx="30.8" ry="30.8" fill="rgb(255, 255, 255)" stroke="rgb(0, 0, 0)" pointer-events="all"/><path d="M 109.91 30.09 L 97.07 42.93 Q 90 50 93.16 59.49 L 96.84 70.51 Q 100 80 100 90 L 100 100 Q 100 110 90 110 L 80 110 Q 70 110 60 110 L 40 110 Q 30 110 30 100 L 30 90 Q 30 80 30 70 L 30 50 Q 30 40 40 40 L 70 40" fill="none" stroke="#000000" stroke-width="12" stroke-miterlimit="10" pointer-events="stroke"/><path d="M 120.51 19.49 L 115.21 35.4 L 104.6 24.79 Z" fill="#000000" stroke="#000000" stroke-width="12" stroke-miterlimit="10" pointer-events="all"/></g></svg>