<?xml version="1.0" encoding="UTF-8"?>
<!DOCTYPE svg PUBLIC "-//W3C//DTD SVG 1.1//EN" "http://www.w3.org/Graphics/SVG/1.1/DTD/svg11.dtd">
<svg xmlns="http://www.w3.org/2000/svg" xmlns:xlink="http://www.w3.org/1999/xlink" version="1.1" width="141px" height="141px" viewBox="-0.5 -0.5 141 141"><defs/><g><rect x="0" y="0" width="140" height="140" rx="30.8" ry="30.8" fill="rgb(255, 255, 255)" stroke="rgb(0, 0, 0)" pointer-events="all"/><path d="M 35 85 L 35 80 Q 35 75 35 65 L 35 35 Q 35 25 45 25 L 50 25 Q 55 25 56.1 34.94 L 58.9 60.06 Q 60 70 58.9 79.94 L 56.1 105.06 Q 55 115 45 115 L 40 115 Q 35 115 35 105 L 35 85" fill="none" stroke="#000000" stroke-width="12" stroke-miterlimit="10" pointer-events="stroke"/><path d="M 85 85 L 85 80 Q 85 75 85 65 L 85 35 Q 85 25 95 25 L 100 25 Q 105 25 106.41 34.9 L 108.59 50.1 Q 110 60 109.09 69.96 L 105.91 105.04 Q 105 115 95 115 L 90 115 Q 85 115 85 105 L 85 85" fill="none" stroke="#000000" stroke-width="12" stroke-miterlimit="10" pointer-events="stroke"/></g></svg>